HIERARCHY
ROOT Root
{
	OFFSET 0.00 0.00 0.00
	CHANNELS 6 Xposition Yposition Zposition Xrotation Yrotation Zrotation
	JOINT L_Femur
	{
		OFFSET 3.93700 0.00000 0.00000
		CHANNELS 3 Xrotation Yrotation Zrotation
		JOINT L_Tibia
		{
			OFFSET 0.00000 -19.24635 0.00000
			CHANNELS 3 Xrotation Yrotation Zrotation
			JOINT L_Foot
			{
				OFFSET 0.00000 -17.00218 -0.00000
				CHANNELS 3 Xrotation Yrotation Zrotation
				JOINT L_Toe
				{
					OFFSET 0.00000 -1.78320 6.65499
					CHANNELS 3 Xrotation Yrotation Zrotation
					End Site
					{
						OFFSET 0.00000 0.00000 2.95275
					}
				}
			}
		}
	}
	JOINT R_Femur
	{
		OFFSET -3.93700 0.00000 0.00000
		CHANNELS 3 Xrotation Yrotation Zrotation
		JOINT R_Tibia
		{
			OFFSET 0.00000 -19.24635 0.00000
			CHANNELS 3 Xrotation Yrotation Zrotation
			JOINT R_Foot
			{
				OFFSET 0.00000 -17.00218 0.00000
				CHANNELS 3 Xrotation Yrotation Zrotation
				JOINT R_Toe
				{
					OFFSET 0.00000 -1.78320 6.65499
					CHANNELS 3 Xrotation Yrotation Zrotation
					End Site
					{
						OFFSET 0.00000 0.00000 2.95275
					}
				}
			}
		}
	}
	JOINT LowerBack
	{
		OFFSET 0.00000 0.03937 0.00000
		CHANNELS 3 Xrotation Yrotation Zrotation
		JOINT Thorax
		{
			OFFSET 0.00000 8.42896 0.00000
			CHANNELS 3 Xrotation Yrotation Zrotation
			JOINT Neck
			{
				OFFSET 0.00000 7.29157 0.00000
				CHANNELS 3 Xrotation Yrotation Zrotation
				JOINT Head
				{
					OFFSET 0.00000 4.22110 0.00000
					CHANNELS 3 Xrotation Yrotation Zrotation
					End Site
					{
						OFFSET 0.00000 4.22110 0.00000
					}
				}
			}
			JOINT L_Collar
			{
				OFFSET 0.00000 7.29157 0.00000
				CHANNELS 3 Xrotation Yrotation Zrotation
				JOINT L_Humerus
				{
					OFFSET 5.90550 0.00000 0.00000
					CHANNELS 3 Xrotation Yrotation Zrotation
					JOINT L_Elbow
					{
						OFFSET 11.59585 0.00000 0.00000
						CHANNELS 3 Xrotation Yrotation Zrotation
						JOINT L_Wrist
						{
							OFFSET 8.38509 0.00000 0.00000
							CHANNELS 3 Xrotation Yrotation Zrotation
							End Site
							{
								OFFSET 3.93700 0.00000 0.00000
							}
						}
					}
				}
			}
			JOINT R_Collar
			{
				OFFSET 0.00000 7.29157 0.00000
				CHANNELS 3 Xrotation Yrotation Zrotation
				JOINT R_Humerus
				{
					OFFSET -5.90550 0.00000 0.00000
					CHANNELS 3 Xrotation Yrotation Zrotation
					JOINT R_Elbow
					{
						OFFSET -11.59585 -0.00000 0.00000
						CHANNELS 3 Xrotation Yrotation Zrotation
						JOINT R_Wrist
						{
							OFFSET -8.38509 -0.00000 0.00000
							CHANNELS 3 Xrotation Yrotation Zrotation
							End Site
							{
								OFFSET -5.41338 0.00000 0.00000
							}
						}
					}
				}
			}
		}
	}
}
MOTION
Frames: 14
Frame Time: 0.008333
 5.5477 38.0689 -10.4068 7.4917 7.3712 1.2609 -16.6427 2.9417 4.9644 31.4193 -0.0000 -0.0000 -20.6210 12.8193 -9.6323 14.1478 -0.0000 -0.0000 -16.3189 -11.5952 -5.3267 31.3910 0.0000 -0.0000 -26.5240 -24.0276 4.5074 20.3662 0.0000 -0.0000 -14.9950 0.4719 -1.4180 9.9210 1.1182 6.4854 27.9484 11.4440 3.1810 -23.8749 18.3276 -13.8449 -2.4527 -2.7546 6.6186 -9.7565 -25.5147 -73.8034 180.0000 -59.6790 180.0000 -57.2573 -2.0197 13.8658 -14.2222 5.0520 -8.6244 -34.7645 2.3064 82.0842 -180.0000 79.8786 180.0000 -67.7259 -0.6392 -4.5928
 5.5398 38.0831 -10.4063 7.6709 7.3858 1.2375 -16.7735 3.1633 5.0337 31.2656 0.0000 0.0000 -20.5130 12.5840 -9.6997 14.1340 -0.0000 0.0000 -16.4246 -11.5922 -5.3049 31.2561 0.0000 -0.0000 -26.4147 -24.0304 4.6071 20.2695 0.0000 -0.0000 -14.9174 0.5029 -1.3347 9.5343 1.0898 6.2851 27.9448 11.4889 3.2130 -24.0009 18.2982 -13.6795 -2.1220 -2.5931 6.4659 -9.0631 -25.2028 -73.2512 -180.0000 -60.1207 180.0000 -58.5624 -2.2137 13.9330 -14.2504 4.7977 -8.6122 -35.8767 0.8934 81.7513 180.0000 81.3588 180.0000 -69.1151 -0.4915 -4.2839
 5.5329 38.0969 -10.4070 7.8180 7.4605 1.2277 -16.8603 3.2059 5.0394 31.0955 -0.0000 0.0000 -20.4030 12.4834 -9.7508 14.1555 0.0000 -0.0000 -16.5377 -11.7885 -5.3447 31.1614 0.0000 -0.0000 -26.3125 -23.9404 4.7005 20.1761 0.0000 -0.0000 -14.7910 0.4975 -1.2609 9.1602 1.0280 6.0835 27.8331 11.4368 3.2795 -23.9777 18.3295 -13.5981 -1.8663 -2.4377 6.2692 -8.3347 -24.8846 -72.5976 -180.0000 -60.5461 -180.0000 -60.1567 -2.4676 13.8890 -14.5596 4.6192 -8.7333 -36.5241 -0.3021 81.4352 180.0000 82.7028 -180.0000 -69.5439 -0.6155 -3.7538
 5.5237 38.1135 -10.4059 8.0066 7.4898 1.1640 -16.9642 3.2574 5.1004 30.8892 0.0000 0.0000 -20.3114 12.4109 -9.8015 14.1895 -0.0000 -0.0000 -16.5380 -11.7038 -5.2286 30.8325 -0.0000 0.0000 -26.2320 -24.0673 4.6911 20.1974 -0.0000 0.0000 -14.7232 0.5128 -1.1517 8.8276 0.9957 5.9354 27.7420 11.4844 3.2497 -24.1007 18.2404 -13.4942 -1.6435 -2.3180 6.0677 -7.5908 -24.5618 -71.9635 180.0000 -60.9151 180.0000 -61.3158 -2.5343 13.9826 -14.7990 4.3419 -8.8185 -37.2190 -0.9577 81.0469 180.0000 84.0705 -180.0000 -70.7727 -0.7507 -3.1979
 5.5107 38.1293 -10.4029 8.1708 7.5633 1.1360 -17.0115 3.2300 5.1090 30.6257 0.0000 0.0000 -20.2044 12.3833 -9.8564 14.2229 -0.0000 -0.0000 -16.5884 -11.7704 -5.2019 30.6238 -0.0000 0.0000 -26.1520 -24.0624 4.7228 20.2053 -0.0000 0.0000 -14.6447 0.5029 -1.0944 8.5264 0.9458 5.7916 27.6082 11.4672 3.2766 -24.1906 18.2424 -13.4459 -1.4060 -2.1272 5.8281 -6.9201 -24.2756 -71.2435 180.0000 -61.2694 180.0000 -62.2547 -2.5298 14.0179 -14.9610 4.1287 -8.8766 -37.7889 -1.2565 80.5631 180.0000 85.0819 -180.0000 -71.1864 -0.8177 -2.9787
 5.4964 38.1435 -10.4002 8.3371 7.6326 1.1418 -17.0767 3.2953 5.1097 30.3817 0.0000 -0.0000 -20.0865 12.2695 -9.9140 14.2512 0.0000 -0.0000 -16.6449 -11.8066 -5.2023 30.4142 -0.0000 0.0000 -26.1050 -24.0652 4.7338 20.2309 0.0000 0.0000 -14.5484 0.5028 -1.0210 8.2202 0.8890 5.5425 27.4486 11.3902 3.3830 -24.2831 18.3536 -13.4196 -1.2749 -2.0821 5.7101 -6.0725 -23.8988 -70.5399 180.0000 -61.5952 180.0000 -62.6871 -2.5800 13.9980 -15.1250 3.9003 -8.8697 -38.1257 -1.1494 80.0672 180.0000 85.7465 -180.0000 -71.6570 -0.9180 -2.8555
 5.4822 38.1566 -10.3972 8.4985 7.6614 1.1200 -17.1550 3.3559 5.1402 30.1879 0.0000 -0.0000 -19.9874 12.1957 -9.9726 14.2724 0.0000 -0.0000 -16.7103 -11.8454 -5.1777 30.2408 -0.0000 -0.0000 -26.0190 -24.0203 4.7676 20.1459 -0.0000 0.0000 -14.4946 0.4847 -0.9513 8.0080 0.8322 5.3808 27.2758 11.3429 3.4151 -24.4262 18.3702 -13.4323 -1.1551 -2.0780 5.6267 -5.2036 -23.4215 -69.9006 180.0000 -61.7875 180.0000 -62.9829 -2.5765 14.1014 -15.0188 3.7144 -8.7917 -38.6277 -0.6056 79.4575 180.0000 86.1496 -180.0000 -72.0277 -0.7582 -2.8859
 5.4670 38.1684 -10.3928 8.6709 7.7010 1.1174 -17.2140 3.3427 5.1284 29.9522 -0.0000 -0.0000 -19.8975 12.1935 -10.0179 14.2970 -0.0000 0.0000 -16.7890 -11.9208 -5.1777 30.0615 -0.0000 0.0000 -25.9796 -23.9729 4.7853 20.1692 0.0000 -0.0000 -14.4529 0.4403 -0.8830 7.8006 0.7482 5.2109 27.0960 11.3815 3.4022 -24.5549 18.4019 -13.4101 -1.0075 -1.9461 5.4274 -4.4111 -23.0415 -69.0935 180.0000 -62.0586 180.0000 -63.2957 -2.6213 14.0170 -14.9837 3.5525 -8.7046 -38.8742 0.2045 78.9701 180.0000 86.1773 -180.0000 -72.6369 -0.6223 -3.0674
 5.4492 38.1787 -10.3881 8.8293 7.6785 1.0188 -17.2358 3.3390 5.2252 29.6455 0.0000 0.0000 -19.9049 12.2244 -9.9958 14.5787 0.0000 0.0000 -16.7579 -11.8667 -5.0168 29.7472 0.0000 -0.0000 -25.9227 -24.0279 4.7870 20.2445 -0.0000 -0.0000 -14.4097 0.4027 -0.7212 7.6464 0.6674 5.0552 26.8700 11.3871 3.3938 -24.6723 18.4223 -13.4053 -0.8909 -1.9136 5.2817 -3.6244 -22.4836 -68.3764 180.0000 -62.2849 180.0000 -63.5671 -2.5747 13.8280 -15.0736 3.3940 -8.6566 -38.8526 1.2193 78.6054 180.0000 85.9703 -180.0000 -72.6946 -0.5519 -3.2336
 5.4306 38.1891 -10.3830 8.9743 7.6650 1.0553 -17.3179 3.4000 5.2081 29.5520 0.0000 -0.0000 -19.7650 12.1934 -10.0802 14.3798 0.0000 -0.0000 -16.8247 -11.9087 -5.0391 29.5792 -0.0000 0.0000 -25.8956 -23.9550 4.8179 20.2195 0.0000 -0.0000 -14.3526 0.3513 -0.6720 7.4880 0.5802 4.8770 26.6934 11.3873 3.4257 -24.8092 18.5579 -13.4597 -0.7896 -1.7846 5.1473 -2.8942 -21.9816 -67.6695 180.0000 -62.5740 180.0000 -64.2723 -2.5957 13.4953 -15.0028 3.2150 -8.5302 -38.8603 2.4866 78.2916 180.0000 85.4701 -180.0000 -73.1368 -0.4354 -3.3302
 5.4089 38.1967 -10.3761 9.1063 7.6564 1.0841 -17.3125 3.3809 5.1810 29.3014 -0.0000 0.0000 -19.6898 12.2484 -10.1202 14.4097 -0.0000 0.0000 -16.8873 -12.0006 -5.0614 29.4317 0.0000 -0.0000 -25.8850 -23.8331 4.8306 20.2205 -0.0000 0.0000 -14.2970 0.2942 -0.6710 7.3901 0.5087 4.8032 26.4887 11.4089 3.4075 -25.0402 18.5867 -13.5003 -0.4892 -1.7760 4.9419 -2.3571 -21.3541 -66.9158 -180.0000 -62.7580 180.0000 -65.0955 -2.5761 13.1838 -15.0750 3.0302 -8.5153 -38.6118 3.8313 78.1139 180.0000 84.7264 -180.0000 -73.0023 -0.4357 -3.3895
 5.3851 38.2010 -10.3668 9.2321 7.6344 1.0994 -17.3146 3.3071 5.1599 29.0954 0.0000 0.0000 -19.6483 12.3722 -10.1459 14.4504 -0.0000 0.0000 -16.9390 -12.0814 -5.0644 29.2954 -0.0000 0.0000 -25.8911 -23.7036 4.8655 20.2578 -0.0000 0.0000 -14.2572 0.2350 -0.6482 7.2930 0.4297 4.7039 26.3693 11.4267 3.3925 -25.2980 18.5893 -13.5480 -0.4458 -1.7770 4.8892 -1.6507 -20.7340 -66.3661 180.0000 -63.0056 180.0000 -66.1039 -2.6592 12.8084 -15.0099 2.8690 -8.4406 -38.4080 5.3168 77.9772 180.0000 83.8060 -180.0000 -73.3664 -0.3827 -3.2559
 5.3606 38.2041 -10.3588 9.3659 7.5697 0.9932 -17.4086 3.4832 5.3347 28.9707 0.0000 -0.0000 -19.6872 12.2453 -10.1228 14.6727 0.0000 0.0000 -16.9063 -12.0476 -4.8919 29.0349 0.0000 0.0000 -25.8634 -23.6906 4.8666 20.2739 -0.0000 0.0000 -14.2458 0.1761 -0.5301 7.2459 0.3548 4.6822 26.1875 11.4715 3.3505 -25.5144 18.5982 -13.5858 -0.3155 -1.6326 4.7837 -1.2068 -20.2905 -65.8293 180.0000 -63.3146 180.0000 -67.3653 -2.6733 12.4758 -14.9307 2.7305 -8.3649 -38.1365 6.8859 77.8446 180.0000 82.5890 -180.0000 -73.4714 -0.4341 -3.2144
 5.3326 38.2059 -10.3527 9.4830 7.4993 1.0546 -17.4882 3.5807 5.3248 28.9472 -0.0000 -0.0000 -19.5850 12.2393 -10.2203 14.4495 -0.0000 0.0000 -16.9653 -12.0066 -4.9023 28.9112 0.0000 -0.0000 -25.9233 -23.6356 4.8923 20.3480 0.0000 0.0000 -14.2174 0.1139 -0.6283 7.1982 0.3100 4.7647 26.0847 11.5403 3.2447 -25.7523 18.4849 -13.6345 -0.4603 -1.5931 4.7422 -0.4695 -19.7768 -65.4190 180.0000 -63.6078 180.0000 -68.7561 -2.7876 12.1056 -14.8232 2.6606 -8.3017 -37.7940 8.5120 77.7135 180.0000 81.0867 -180.0000 -73.2183 -0.6116 -3.4046
